<svg xmlns="http://www.w3.org/2000/svg" width="261.648" height="168.754" version="1.1" style=""><rect id="backgroundrect" width="100%" height="100%" x="0" y="0" fill="none" stroke="none"/>
 
<g class="currentLayer" style=""><title>Layer 1</title><g id="svg_1" class="selected" opacity="1" fill="#b6b6b6" fill-opacity="1">
  <path d="m62.174,0 c-42.658,0 -94.647,168.75 -35.775,168.75 c22.059,0 43.068,-35.831 54.205,-48.061 h100.44 c11.137,12.23 32.144,48.061 54.203,48.061 c58.871,0 6.8828000000000005,-168.75 -35.775,-168.75 h-31.438 c-6.0604,0 -14.204,10.842 -19.512,10.842 h-35.398 c-5.3074,0 -13.453,-10.842 -19.514,-10.842 h-31.438 zm132.17,25.631 a6.7054,6.7054 0 0 1 6.7051,6.7051 a6.7054,6.7054 0 0 1 -6.7051,6.707 a6.7054,6.7054 0 0 1 -6.707,-6.707 a6.7054,6.7054 0 0 1 6.707,-6.7051 zm-135.45,2.9727 h9.7109 v14.566 h14.562 v9.709 h-14.562 v14.564 h-9.7109 v-14.564 h-14.564 v-9.709 h14.564 v-14.566 zm119.09,13.385 a6.7054,6.7054 0 0 1 6.707,6.7051 a6.7054,6.7054 0 0 1 -6.707,6.707 a6.7054,6.7054 0 0 1 -6.7051,-6.707 a6.7054,6.7054 0 0 1 6.7051,-6.7051 zm32.988,0 a6.7054,6.7054 0 0 1 6.7051,6.7051 a6.7054,6.7054 0 0 1 -6.7051,6.707 a6.7054,6.7054 0 0 1 -6.707,-6.707 a6.7054,6.7054 0 0 1 6.707,-6.7051 zm-16.359,16.629 a6.7054,6.7054 0 0 1 6.707,6.7051 a6.7054,6.7054 0 0 1 -6.707,6.707 a6.7054,6.7054 0 0 1 -6.7051,-6.707 a6.7054,6.7054 0 0 1 6.7051,-6.7051 zm-92.055,26.664 a13.37,13.37 0 0 1 13.371,13.369 a13.37,13.37 0 0 1 -13.371,13.371 a13.37,13.37 0 0 1 -13.371,-13.371 a13.37,13.37 0 0 1 13.371,-13.369 zm56.531,0 a13.37,13.37 0 0 1 13.369,13.369 a13.37,13.37 0 0 1 -13.369,13.371 a13.37,13.37 0 0 1 -13.371,-13.371 a13.37,13.37 0 0 1 13.371,-13.369 z" fill="#b6b6b6" fill-rule="evenodd" id="svg_2" opacity="1" fill-opacity="1"/>
 </g></g></svg>